<?xml version="1.0" standalone="no"?><!DOCTYPE svg PUBLIC "-//W3C//DTD SVG 1.1//EN" "http://www.w3.org/Graphics/SVG/1.1/DTD/svg11.dtd"><svg t="1685694971942" class="icon" viewBox="0 0 1024 1024" version="1.1" xmlns="http://www.w3.org/2000/svg" p-id="1268" xmlns:xlink="http://www.w3.org/1999/xlink" width="200" height="200"><path d="M518.4 576h-64c-12.8 0-19.2 6.4-19.2 19.2 0 12.8 6.4 19.2 19.2 19.2h64c12.8 0 19.2-6.4 19.2-19.2 0-12.8-6.4-19.2-19.2-19.2z m0 96h-64c-12.8 0-19.2 6.4-19.2 19.2 0 12.8 6.4 19.2 19.2 19.2h64c12.8 0 19.2-12.8 19.2-19.2 0-6.4-6.4-19.2-19.2-19.2z m192-473.6H499.2c-12.8 0-19.2 6.4-19.2 19.2s6.4 19.2 19.2 19.2h211.2c12.8 0 19.2-6.4 19.2-19.2s-6.4-19.2-19.2-19.2z m0-83.2H499.2c-12.8 0-19.2 6.4-19.2 19.2 0 12.8 6.4 19.2 19.2 19.2h211.2c12.8 0 19.2-12.8 19.2-19.2 0-12.8-6.4-19.2-19.2-19.2z m51.2 256H448c-12.8 0-19.2 12.8-19.2 25.6v140.8c0 12.8 6.4 19.2 19.2 19.2h320c12.8 0 19.2-12.8 19.2-19.2V396.8c-6.4-12.8-12.8-25.6-25.6-25.6z m-19.2 147.2H467.2V416h275.2v102.4zM640 672H576c-12.8 0-19.2 6.4-19.2 19.2 0 12.8 6.4 19.2 19.2 19.2h64c12.8 0 19.2-12.8 19.2-19.2 0-6.4-12.8-19.2-19.2-19.2zM755.2 576h-64c-12.8 0-19.2 12.8-19.2 19.2 0 12.8 6.4 19.2 19.2 19.2h64c12.8 0 19.2-6.4 19.2-19.2 0-12.8-6.4-19.2-19.2-19.2zM896 217.6c-19.2-19.2-44.8-32-76.8-32V32c0-12.8-6.4-19.2-19.2-19.2h-384c-12.8 0-19.2 6.4-19.2 19.2v153.6h-38.4c-6.4-12.8-19.2-25.6-25.6-38.4-19.2-19.2-51.2-32-76.8-32h-44.8c-57.6 0-108.8 51.2-108.8 108.8v492.8c0 32 12.8 57.6 32 76.8 19.2 19.2 38.4 25.6 64 32-6.4 6.4-6.4 12.8-12.8 25.6-12.8 25.6-32 51.2-25.6 89.6 6.4 25.6 19.2 44.8 44.8 57.6 12.8 6.4 32 12.8 44.8 12.8 19.2 0 32-6.4 44.8-12.8 19.2-12.8 38.4-32 44.8-57.6 6.4-32-6.4-64-25.6-89.6-6.4-6.4-6.4-12.8-12.8-19.2h518.4c57.6 0 108.8-51.2 108.8-108.8V300.8c0-32-12.8-64-32-83.2zM268.8 960c-6.4 6.4-19.2 6.4-25.6 6.4-6.4 0-19.2 0-25.6-6.4-12.8-6.4-19.2-12.8-19.2-32-6.4-12.8 6.4-32 19.2-51.2 6.4-12.8 19.2-25.6 19.2-44.8h12.8c6.4 12.8 12.8 25.6 19.2 44.8 12.8 19.2 25.6 38.4 19.2 57.6 0 12.8-6.4 19.2-19.2 25.6z m25.6-236.8c0 12.8-6.4 19.2-12.8 25.6-6.4 6.4-12.8 6.4-25.6 12.8h-44.8c-6.4 0-12.8 0-19.2-6.4l-6.4-6.4c-6.4-6.4-12.8-19.2-12.8-25.6V230.4c0-12.8 6.4-19.2 12.8-32 0-6.4 12.8-12.8 25.6-12.8H256c12.8 0 19.2 6.4 25.6 12.8 6.4 6.4 12.8 19.2 12.8 25.6v499.2zM435.2 57.6h345.6v243.2H435.2V57.6z m422.4 665.6c0 19.2-19.2 38.4-38.4 38.4H358.4c0-6.4 6.4-19.2 6.4-32V256h25.6v64c0 12.8 6.4 19.2 19.2 19.2h384c12.8 0 19.2-12.8 19.2-19.2V256c12.8 0 19.2 6.4 25.6 12.8 6.4 6.4 12.8 19.2 12.8 25.6v428.8h6.4zM640 576H576c-19.2 0-25.6 6.4-25.6 19.2 0 12.8 6.4 19.2 19.2 19.2h64c12.8 0 19.2-6.4 19.2-19.2 6.4-12.8-6.4-19.2-12.8-19.2z m115.2 96h-64c-12.8 0-19.2 6.4-19.2 19.2 0 12.8 6.4 19.2 19.2 19.2h64c12.8 0 19.2-12.8 19.2-19.2 0-6.4-6.4-19.2-19.2-19.2z" fill="" p-id="1269"></path></svg>