<?xml version="1.0" encoding="utf-8"?>
<!-- Generator: Adobe Illustrator 21.0.0, SVG Export Plug-In . SVG Version: 6.00 Build 0)  -->
<svg version="1.1" id="圖層_1" xmlns="http://www.w3.org/2000/svg" xmlns:xlink="http://www.w3.org/1999/xlink" x="0px" y="0px"
	 viewBox="0 0 45.3 52.3" style="enable-background:new 0 0 45.3 52.3;" xml:space="preserve">
<style type="text/css">
	.st0{fill:#FFFFFF;}
	.st1{fill:#040000;}
	.st2{fill:#EDE2D1;}
	.st3{fill:#EB5D33;}
	.st4{fill:#EB5D33;stroke:#040000;stroke-width:3;stroke-linejoin:round;stroke-miterlimit:10;}
	.st5{fill:#1680A3;}
	.st6{fill:#FDFEFE;}
	.st7{fill:none;}
	.st8{fill:#090606;}
	.st9{fill:#090707;}
	.st10{fill:none;stroke:#090606;stroke-width:2;stroke-linecap:round;stroke-linejoin:round;stroke-miterlimit:10;}
</style>
<g>
	<path class="st0" d="M19.9,26.6c-0.1,0-0.3-0.1-0.5-0.1h-9c-0.3,0-0.6,0.1-0.8,0.2c-0.2,0.1-0.3,0.3-0.3,0.5v2.7
		c0.1,0.6,0.8,2.2,3.1,2.3l3,0c0,0,0,0,0,0c2.2,0,3.7-0.5,4.6-1.5c1-1.3,0.6-3,0.6-3C20.5,26.9,20.4,26.7,19.9,26.6z M15,30.9
		c-0.7,0-1.2-0.7-1.2-1.7s0.5-1.7,1.2-1.7c0.7,0,1.2,0.7,1.2,1.7S15.6,30.9,15,30.9z"/>
	<path class="st0" d="M41.4,28.6C41.4,28.6,41.4,28.6,41.4,28.6l-2.7,1.7c0,0,0,0,0,0c-0.4,1.3-1.6,2.7-3.9,2.8l-3.1,0
		c-0.1,0-0.2,0-0.3,0c-2.3,0-4-0.6-4.9-1.8c-0.8-1-0.9-2.1-0.9-2.9c-1.9-0.8-3.5-0.2-4.1,0c0,0.8-0.1,1.9-0.9,2.9
		c-1,1.2-2.6,1.8-4.9,1.8c-0.1,0-0.2,0-0.3,0h-3c-2.4-0.1-3.6-1.6-4-3c0,0,0-0.1,0-0.1v-1.1l-3-2.4c-0.1,0-0.2-0.1-0.3-0.1
		c-0.9-1-2.1-2-3-1.4C0.2,26.3,0.7,34.5,2,36.8c0.5,0.9,1.1,1.4,1.7,1.5c0.7,0.1,1.2-0.5,1.4-0.6c0,0,0.1-0.1,0.1-0.1
		c0,0,0.1-0.1,0.1-0.1c0,0,0.1,0,0.1,0c0,0,0,0,0.1,0c0.1,0,0.2,0,0.3,0.1c0.1,0.1,0.2,0.2,0.1,0.4c0.3,1.2,3.8,13,17,13.5
		c6-0.1,10.7-2.4,13.9-6.9c2.4-3.3,3-6.7,3-6.7c0-0.2,0.3-0.4,0.5-0.3c0.2,0,0.4,0.3,0.3,0.5c0,0-0.1,0.3-0.2,0.7
		c0.2,0.2,1.1,0.7,1.9,0c0.7-0.6,3.2-8.5,1.7-10.5C43.6,27.6,42.7,27.8,41.4,28.6z M21,36.9c0.2-0.1,0.4-0.1,0.6,0.1
		c0,0,1,1.1,2.1,1.1c0.6,0,1.3-0.4,1.8-1.1c0.1-0.2,0.4-0.2,0.6-0.1c0.2,0.1,0.2,0.4,0.1,0.6c-0.7,0.9-1.6,1.4-2.5,1.4c0,0,0,0,0,0
		c-1.5,0-2.7-1.4-2.7-1.4C20.8,37.3,20.8,37,21,36.9z M27.8,45c-1.2,1.1-2.5,1.6-3.8,1.6c-0.1,0-0.2,0-0.3,0c-2-0.1-3.3-1.6-3.4-1.7
		c-0.2-0.2-0.1-0.4,0-0.6c0.2-0.2,0.4-0.1,0.6,0c0,0,1.1,1.3,2.8,1.4c1.2,0.1,2.3-0.4,3.5-1.4c0.2-0.2,0.4-0.1,0.6,0
		C27.9,44.6,27.9,44.9,27.8,45z"/>
	<path class="st0" d="M8.4,27.2c0-0.5,0.3-0.9,0.7-1.2c0.4-0.3,0.9-0.3,1.2-0.3h9c0.3,0,0.5,0,0.7,0.1c1.1,0.3,1.3,1,1.4,1.7
		c0.8-0.3,2.4-0.7,4.3,0c0.1-0.7,0.3-1.4,1.4-1.7c0.2-0.1,0.5-0.1,0.7-0.1h9c0.3,0,0.8,0.1,1.2,0.3c0.5,0.3,0.7,0.7,0.7,1.2v2
		l1.9-1.2c-0.1-0.2-0.1-0.6-0.2-0.9c-0.1,0-0.3-0.2-0.3-0.5c-0.3-1.6-2.8-5.7-4.7-7.1c-1.6-1.2-3.7-4.7-4.6-6.7c0,0.6-0.1,1.3-0.1,2
		c0,0.2-0.1,0.3-0.3,0.4c-0.2,0.1-0.3,0-0.4-0.1c-1.1-1-1.5-3.3-1.6-5.2c-1.3,1.9-3.6,4.3-4.2,4.9c-0.1,0.1-0.4,0.2-0.5,0
		c-0.2-0.1-0.2-0.3-0.1-0.5c0.4-0.8,0.7-1.7,1-2.4c-2.3,2.8-6.1,4.4-6.3,4.4c-0.2,0.1-0.4,0-0.5-0.1c-0.1-0.2-0.1-0.4,0-0.5
		c0.5-0.7,1.1-1.4,1.5-2c0,0-0.1,0.1-0.1,0.1c-2.6,1.9-6.3,2.9-7.9,3.3c-2.5,2.2-4.6,5-5.7,8.6l2.8,2.2V27.2z M27.5,24
		c4.3-1.9,8.4-0.1,8.6,0c0.2,0.1,0.3,0.3,0.2,0.6c-0.1,0.2-0.3,0.3-0.6,0.2c0,0-3.9-1.8-7.9,0c-0.1,0-0.1,0-0.2,0
		c-0.2,0-0.3-0.1-0.4-0.3C27.2,24.3,27.3,24.1,27.5,24z M10.4,24c4.3-1.9,8.4-0.1,8.6,0c0.2,0.1,0.3,0.3,0.2,0.6
		c-0.1,0.2-0.3,0.3-0.6,0.2c0,0-3.9-1.8-7.9,0c-0.1,0-0.1,0-0.2,0c-0.2,0-0.3-0.1-0.4-0.3C10.1,24.3,10.2,24.1,10.4,24z"/>
	<path class="st0" d="M27.2,30.7c0.8,1,2.4,1.5,4.6,1.5c0,0,0,0,0,0h3.1c2.4-0.1,3-1.7,3.1-2.3v-2.7c0-0.2-0.1-0.4-0.3-0.5
		c-0.2-0.1-0.5-0.2-0.8-0.2h-9c-0.2,0-0.4,0-0.5,0.1c-0.6,0.2-0.7,0.4-0.8,1.1c0,0,0,0.1-0.1,0.3c0,0.1,0,0.2,0,0.3
		C26.5,28.9,26.6,29.9,27.2,30.7z M32.3,27.6c0.7,0,1.2,0.7,1.2,1.7s-0.5,1.7-1.2,1.7c-0.7,0-1.2-0.7-1.2-1.7S31.6,27.6,32.3,27.6z"
		/>
	<path d="M44.7,27.7c-0.4-0.5-1-0.9-2-0.6c4.9-10,2.2-16.4-4.7-22c-7-5.7-9.8-3-9.8-3C25.8,0.5,24.4-2.1,11.7,3
		C0.5,7.6,2.3,20.9,2.8,23.9c-0.4,0-0.8,0.1-1.2,0.4c-2.4,1.8-1.7,10.5-0.3,13c0.7,1.2,1.5,1.8,2.4,1.9c0.1,0,0.1,0,0.2,0
		c0.6,0,1.1-0.2,1.4-0.5c0.9,2.7,4.9,13,17.4,13.6c0,0,0.1,0,0.1,0h0.1c0,0,0,0,0.1,0c12-0.3,16-9.1,17.2-12.7
		c0.3,0.2,0.8,0.4,1.3,0.4c0.5,0,1-0.1,1.4-0.5C43.9,38.5,46.5,30.1,44.7,27.7z M11.3,17c1.6-0.4,5.3-1.4,7.9-3.3
		c0,0,0.1-0.1,0.1-0.1c-0.4,0.6-1,1.3-1.5,2c-0.1,0.1-0.1,0.4,0,0.5c0.1,0.2,0.3,0.2,0.5,0.1c0.2-0.1,4-1.7,6.3-4.4
		c-0.3,0.7-0.7,1.6-1,2.4c-0.1,0.2,0,0.4,0.1,0.5c0.2,0.1,0.4,0.1,0.5,0c0.6-0.6,3-3,4.2-4.9c0.1,1.8,0.5,4.2,1.6,5.2
		c0.1,0.1,0.3,0.1,0.4,0.1c0.2-0.1,0.3-0.2,0.3-0.4c0-0.7,0-1.4,0.1-2c1,2,3,5.5,4.6,6.7c1.9,1.5,4.4,5.5,4.7,7.1
		c0.1,0.3,0.2,0.5,0.3,0.5c0.1,0.4,0.2,0.7,0.2,0.9l-1.9,1.2v-2c0-0.5-0.3-0.9-0.7-1.2c-0.4-0.3-0.9-0.3-1.2-0.3h-9
		c-0.3,0-0.5,0-0.7,0.1c-1.1,0.3-1.3,1-1.4,1.7c-1.9-0.7-3.5-0.3-4.3,0c-0.1-0.8-0.3-1.4-1.4-1.7c-0.2-0.1-0.5-0.1-0.7-0.1h-9
		c-0.3,0-0.8,0.1-1.2,0.3c-0.5,0.3-0.7,0.7-0.7,1.2v0.6l-2.8-2.2C6.7,22,8.8,19.2,11.3,17z M26.5,28c0-0.2,0.1-0.3,0.1-0.3
		c0.1-0.7,0.2-0.9,0.8-1.1c0.1,0,0.3-0.1,0.5-0.1h9c0.3,0,0.6,0.1,0.8,0.2c0.2,0.1,0.3,0.3,0.3,0.5v2.7c-0.1,0.6-0.7,2.2-3.1,2.3
		h-3.1c0,0,0,0,0,0c-2.2,0-3.7-0.4-4.6-1.5c-0.7-0.8-0.7-1.8-0.7-2.4C26.5,28.2,26.6,28.1,26.5,28z M20,30.7c-0.8,1-2.4,1.5-4.6,1.5
		c0,0,0,0,0,0l-3,0c-2.4-0.1-3-1.7-3.1-2.3v-2.7c0-0.2,0.1-0.4,0.3-0.5c0.2-0.1,0.5-0.2,0.8-0.2h9c0.2,0,0.4,0,0.5,0.1
		c0.6,0.2,0.7,0.4,0.8,1.1C20.6,27.7,21,29.4,20,30.7z M42.4,38.7c-0.8,0.7-1.7,0.1-1.9,0c0.1-0.4,0.2-0.7,0.2-0.7
		c0-0.2-0.1-0.4-0.3-0.5c-0.2,0-0.4,0.1-0.5,0.3c0,0-0.6,3.4-3,6.7c-3.2,4.4-7.9,6.8-13.9,6.9C9.7,50.9,6.2,39.1,5.9,37.9
		c0-0.1,0-0.3-0.1-0.4c-0.1-0.1-0.2-0.1-0.3-0.1c0,0,0,0-0.1,0c0,0-0.1,0-0.1,0c0,0-0.1,0-0.1,0.1c0,0,0,0-0.1,0.1
		c-0.2,0.2-0.7,0.7-1.4,0.6c-0.6,0-1.2-0.5-1.7-1.5c-1.4-2.3-1.8-10.5,0.1-11.9c0.8-0.6,2.1,0.4,3,1.4c0.1,0.1,0.2,0.1,0.3,0.1
		l3,2.4v1.1c0,0,0,0.1,0,0.1c0.3,1.4,1.5,2.9,4,3h3c0.1,0,0.2,0,0.3,0c2.3,0,4-0.6,4.9-1.8c0.8-1,0.9-2.1,0.9-2.9
		c0.6-0.2,2.2-0.8,4.1,0c0,0.8,0.1,1.9,0.9,2.9c1,1.2,2.6,1.8,4.9,1.8c0.1,0,0.2,0,0.3,0l3.1,0c2.3-0.1,3.5-1.4,3.9-2.8c0,0,0,0,0,0
		l2.6-1.6c0,0,0.1,0,0.1,0c1.3-0.8,2.2-1,2.6-0.4C45.5,30.2,43.1,38.1,42.4,38.7z"/>
	<path d="M23.7,38.9C23.7,38.9,23.7,38.9,23.7,38.9c0.9,0,1.8-0.5,2.5-1.4c0.1-0.2,0.1-0.4-0.1-0.6c-0.2-0.1-0.4-0.1-0.6,0.1
		c-0.6,0.7-1.2,1.1-1.8,1.1c-1.1,0-2.1-1.1-2.1-1.1c-0.1-0.2-0.4-0.2-0.6-0.1c-0.2,0.1-0.2,0.4-0.1,0.6C21,37.5,22.1,38.9,23.7,38.9
		z"/>
	<path d="M27.2,44.4c-1.2,1-2.3,1.5-3.5,1.4c-1.7-0.1-2.8-1.4-2.8-1.4c-0.2-0.2-0.4-0.2-0.6,0c-0.2,0.2-0.2,0.4,0,0.6
		c0.1,0.1,1.3,1.5,3.4,1.7c0.1,0,0.2,0,0.3,0c1.3,0,2.6-0.5,3.8-1.6c0.2-0.2,0.2-0.4,0-0.6C27.6,44.3,27.4,44.2,27.2,44.4z"/>
	<ellipse cx="15" cy="29.2" rx="1.2" ry="1.7"/>
	<ellipse cx="32.3" cy="29.2" rx="1.2" ry="1.7"/>
	<path d="M10.6,24.8c0.1,0,0.1,0,0.2,0c4-1.8,7.9,0,7.9,0c0.2,0.1,0.5,0,0.6-0.2c0.1-0.2,0-0.5-0.2-0.6c-0.2-0.1-4.3-1.9-8.6,0
		c-0.2,0.1-0.3,0.3-0.2,0.6C10.3,24.7,10.4,24.8,10.6,24.8z"/>
	<path d="M27.7,24.8c0.1,0,0.1,0,0.2,0c4-1.8,7.9,0,7.9,0c0.2,0.1,0.5,0,0.6-0.2c0.1-0.2,0-0.5-0.2-0.6c-0.2-0.1-4.3-1.9-8.6,0
		c-0.2,0.1-0.3,0.3-0.2,0.6C27.4,24.7,27.5,24.8,27.7,24.8z"/>
</g>
</svg>
